<svg width="337" height="346" viewBox="0 0 337 346" fill="none" xmlns="http://www.w3.org/2000/svg">
<g filter="url(#filter0_d_39_2)">
<path d="M125.821 59.08H135.09V91.878H149.939V100H125.821V59.08ZM169.236 59.08H178.443L194.594 100H184.705L181.729 91.785H165.981L162.974 100H153.054L169.236 59.08ZM169.081 83.663H178.66L173.917 70.24H173.824L169.081 83.663ZM197.928 59.08H212.808C215.433 59.08 217.799 59.545 219.907 60.475C222.015 61.3843 223.689 62.7793 224.929 64.66C226.19 66.52 226.82 68.8553 226.82 71.666C226.82 74.456 226.19 76.8327 224.929 78.796C223.689 80.7387 222.015 82.2267 219.907 83.26C217.799 84.2727 215.433 84.779 212.808 84.779H207.197V100H197.928V59.08ZM207.197 77.463H210.235C211.496 77.463 212.622 77.277 213.614 76.905C214.627 76.533 215.433 75.944 216.032 75.138C216.631 74.3113 216.931 73.2263 216.931 71.883C216.931 70.519 216.631 69.4443 216.032 68.659C215.433 67.853 214.627 67.2743 213.614 66.923C212.622 66.5717 211.496 66.396 210.235 66.396H207.197V77.463ZM232.198 59.08H247.077C249.702 59.08 252.069 59.545 254.177 60.475C256.285 61.3843 257.959 62.7793 259.199 64.66C260.459 66.52 261.09 68.8553 261.09 71.666C261.09 74.456 260.459 76.8327 259.199 78.796C257.959 80.7387 256.285 82.2267 254.177 83.26C252.069 84.2727 249.702 84.779 247.077 84.779H241.467V100H232.198V59.08ZM241.467 77.463H244.505C245.765 77.463 246.892 77.277 247.884 76.905C248.896 76.533 249.702 75.944 250.302 75.138C250.901 74.3113 251.201 73.2263 251.201 71.883C251.201 70.519 250.901 69.4443 250.302 68.659C249.702 67.853 248.896 67.2743 247.884 66.923C246.892 66.5717 245.765 66.396 244.505 66.396H241.467V77.463ZM275.011 59.08H284.218L300.369 100H290.48L287.504 91.785H271.756L268.749 100H258.829L275.011 59.08ZM274.856 83.663H284.435L279.692 70.24H279.599L274.856 83.663ZM309.608 85.275L295.503 59.08H306.756L314.227 74.673L321.729 59.08H332.92L318.877 85.275V100H309.608V85.275Z" fill="#DFB4FF"/>
</g>
<g filter="url(#filter1_d_39_2)">
<path d="M27.638 30.414C27.638 33.204 27.111 35.6013 26.057 37.606C25.0237 39.59 23.5357 41.109 21.593 42.163C19.671 43.217 17.3977 43.744 14.773 43.744C12.8717 43.744 11.2183 43.496 9.813 43C8.40767 42.5247 7.29167 42.008 6.465 41.45C5.63833 40.8713 5.132 40.4373 4.946 40.148L8.418 32.119C8.666 32.4703 9.01733 32.8527 9.472 33.266C9.92667 33.6793 10.4847 34.041 11.146 34.351C11.8073 34.6403 12.5513 34.785 13.378 34.785C14.3287 34.785 15.176 34.5887 15.92 34.196C16.664 33.8033 17.253 33.1523 17.687 32.243C18.1417 31.3337 18.369 30.1247 18.369 28.616V2.08H27.638V30.414ZM42.3417 22.509C42.3417 24.8443 42.817 26.9627 43.7677 28.864C44.739 30.7447 46.072 32.243 47.7667 33.359C49.482 34.475 51.466 35.033 53.7187 35.033C55.9714 35.033 57.945 34.475 59.6397 33.359C61.355 32.243 62.688 30.7447 63.6387 28.864C64.61 26.9627 65.0957 24.8443 65.0957 22.509C65.0957 20.1737 64.61 18.0657 63.6387 16.185C62.688 14.3043 61.355 12.806 59.6397 11.69C57.945 10.5533 55.9714 9.985 53.7187 9.985C51.466 9.985 49.482 10.5533 47.7667 11.69C46.072 12.806 44.739 14.3043 43.7677 16.185C42.817 18.0657 42.3417 20.1737 42.3417 22.509ZM32.7007 22.509C32.7007 19.533 33.2277 16.7637 34.2817 14.201C35.3357 11.6177 36.8134 9.365 38.7147 7.443C40.616 5.521 42.848 4.02267 45.4107 2.948C47.9734 1.87333 50.7427 1.336 53.7187 1.336C56.736 1.336 59.5157 1.87333 62.0577 2.948C64.6204 4.02267 66.842 5.521 68.7227 7.443C70.624 9.365 72.0914 11.6177 73.1247 14.201C74.1787 16.7637 74.7057 19.533 74.7057 22.509C74.7057 25.5057 74.1994 28.2957 73.1867 30.879C72.174 33.4417 70.7274 35.6943 68.8467 37.637C66.966 39.559 64.7444 41.0573 62.1817 42.132C59.619 43.2067 56.798 43.744 53.7187 43.744C50.5774 43.744 47.715 43.2067 45.1317 42.132C42.569 41.0573 40.3577 39.559 38.4977 37.637C36.6377 35.6943 35.2014 33.4417 34.1887 30.879C33.1967 28.2957 32.7007 25.5057 32.7007 22.509ZM103.392 26.539H89.2563V43H80.0183V2.08H89.2563V18.448H103.392V2.08H112.599V43H103.392V26.539ZM128.203 10.574L128.885 10.698V43H119.616V2.08H132.264L148.849 34.32L148.167 34.444V2.08H157.436V43H144.726L128.203 10.574Z" fill="#DFB4FF"/>
</g>
<path d="M319.273 303.445C319.273 303.654 319.232 303.823 319.148 303.953C319.07 304.083 318.943 304.177 318.766 304.234L311.602 306.5V307.18C311.602 307.305 311.581 307.401 311.539 307.469C311.497 307.536 311.419 307.586 311.305 307.617C311.19 307.654 311.023 307.672 310.805 307.672C310.586 307.672 310.419 307.654 310.305 307.617C310.19 307.586 310.109 307.536 310.062 307.469C310.021 307.401 310 307.305 310 307.18V303.867C310 303.742 310.021 303.646 310.062 303.578C310.109 303.51 310.19 303.458 310.305 303.422C310.419 303.391 310.586 303.375 310.805 303.375C311.023 303.375 311.19 303.391 311.305 303.422C311.419 303.458 311.497 303.51 311.539 303.578C311.581 303.646 311.602 303.742 311.602 303.867V304.539L312.734 304.188V301.344L311.602 300.992V301.57C311.602 301.695 311.581 301.792 311.539 301.859C311.497 301.927 311.419 301.977 311.305 302.008C311.19 302.044 311.023 302.062 310.805 302.062C310.586 302.062 310.419 302.044 310.305 302.008C310.19 301.977 310.109 301.927 310.062 301.859C310.021 301.792 310 301.695 310 301.57V298.414C310 298.289 310.021 298.193 310.062 298.125C310.109 298.057 310.19 298.008 310.305 297.977C310.419 297.94 310.586 297.922 310.805 297.922C311.023 297.922 311.19 297.94 311.305 297.977C311.419 298.008 311.497 298.057 311.539 298.125C311.581 298.193 311.602 298.289 311.602 298.414V299.07L317.672 301.047V299.742C317.672 299.617 317.693 299.521 317.734 299.453C317.781 299.385 317.862 299.333 317.977 299.297C318.091 299.266 318.258 299.25 318.477 299.25C318.695 299.25 318.862 299.266 318.977 299.297C319.091 299.333 319.169 299.385 319.211 299.453C319.253 299.521 319.273 299.617 319.273 299.742V303.445ZM317.672 302.758L314.336 301.797V303.742L317.672 302.805V302.758ZM320.25 310.516C320.25 310.693 320.211 310.818 320.133 310.891C320.06 310.969 319.935 311.008 319.758 311.008H316.469C316.766 311.273 316.992 311.581 317.148 311.93C317.31 312.279 317.391 312.656 317.391 313.062C317.391 313.745 317.224 314.341 316.891 314.852C316.557 315.362 316.104 315.753 315.531 316.023C314.958 316.294 314.318 316.43 313.609 316.43C312.901 316.43 312.26 316.294 311.688 316.023C311.115 315.753 310.661 315.362 310.328 314.852C309.995 314.341 309.828 313.745 309.828 313.062C309.828 312.568 309.943 312.117 310.172 311.711C310.406 311.305 310.732 310.966 311.148 310.695H310.492C310.315 310.695 310.188 310.656 310.109 310.578C310.036 310.505 310 310.38 310 310.203V308.453C310 308.328 310.021 308.232 310.062 308.164C310.109 308.096 310.19 308.044 310.305 308.008C310.419 307.977 310.586 307.961 310.805 307.961C311.023 307.961 311.19 307.977 311.305 308.008C311.419 308.044 311.497 308.096 311.539 308.164C311.581 308.232 311.602 308.328 311.602 308.453V309.055H318.648V308.297C318.648 308.172 318.669 308.076 318.711 308.008C318.753 307.94 318.831 307.888 318.945 307.852C319.06 307.82 319.227 307.805 319.445 307.805C319.664 307.805 319.831 307.82 319.945 307.852C320.06 307.888 320.138 307.94 320.18 308.008C320.227 308.076 320.25 308.172 320.25 308.297V310.516ZM315.617 312.75C315.617 312.417 315.539 312.115 315.383 311.844C315.227 311.573 314.995 311.357 314.688 311.195C314.385 311.034 314.026 310.953 313.609 310.953C313.193 310.953 312.831 311.034 312.523 311.195C312.221 311.357 311.992 311.573 311.836 311.844C311.68 312.115 311.602 312.417 311.602 312.75C311.602 313.073 311.682 313.354 311.844 313.594C312.01 313.833 312.245 314.016 312.547 314.141C312.849 314.271 313.203 314.336 313.609 314.336C314.016 314.336 314.37 314.271 314.672 314.141C314.974 314.016 315.206 313.833 315.367 313.594C315.534 313.354 315.617 313.073 315.617 312.75ZM317.391 321.984C317.391 322.776 317.229 323.469 316.906 324.062C316.583 324.656 316.135 325.112 315.562 325.43C314.99 325.753 314.339 325.914 313.609 325.914C312.88 325.914 312.229 325.753 311.656 325.43C311.083 325.112 310.635 324.656 310.312 324.062C309.99 323.469 309.828 322.776 309.828 321.984C309.828 321.193 309.99 320.5 310.312 319.906C310.635 319.312 311.083 318.854 311.656 318.531C312.229 318.214 312.88 318.055 313.609 318.055C314.339 318.055 314.99 318.214 315.562 318.531C316.135 318.854 316.583 319.312 316.906 319.906C317.229 320.5 317.391 321.193 317.391 321.984ZM315.617 321.984C315.617 321.609 315.534 321.284 315.367 321.008C315.206 320.732 314.974 320.518 314.672 320.367C314.37 320.221 314.016 320.148 313.609 320.148C313.203 320.148 312.849 320.221 312.547 320.367C312.245 320.518 312.01 320.732 311.844 321.008C311.682 321.284 311.602 321.609 311.602 321.984C311.602 322.359 311.682 322.685 311.844 322.961C312.01 323.237 312.245 323.448 312.547 323.594C312.849 323.745 313.203 323.82 313.609 323.82C314.016 323.82 314.37 323.745 314.672 323.594C314.974 323.448 315.206 323.237 315.367 322.961C315.534 322.685 315.617 322.359 315.617 321.984ZM317.219 334.352C317.219 334.529 317.18 334.654 317.102 334.727C317.029 334.805 316.904 334.844 316.727 334.844H311.602V335.445C311.602 335.57 311.581 335.667 311.539 335.734C311.497 335.802 311.419 335.852 311.305 335.883C311.19 335.919 311.023 335.938 310.805 335.938C310.586 335.938 310.419 335.919 310.305 335.883C310.19 335.852 310.109 335.802 310.062 335.734C310.021 335.667 310 335.57 310 335.445V333.695C310 333.518 310.036 333.391 310.109 333.312C310.188 333.24 310.315 333.203 310.492 333.203H311.625C310.427 332.516 309.828 331.656 309.828 330.625C309.828 330.151 309.932 329.734 310.141 329.375C310.349 329.021 310.643 328.747 311.023 328.555C311.409 328.362 311.859 328.266 312.375 328.266H315.617V327.664C315.617 327.539 315.638 327.443 315.68 327.375C315.727 327.307 315.807 327.255 315.922 327.219C316.036 327.188 316.203 327.172 316.422 327.172C316.641 327.172 316.807 327.188 316.922 327.219C317.036 327.255 317.115 327.307 317.156 327.375C317.198 327.443 317.219 327.539 317.219 327.664V329.727C317.219 329.904 317.18 330.029 317.102 330.102C317.029 330.18 316.904 330.219 316.727 330.219H312.836C312.43 330.219 312.122 330.289 311.914 330.43C311.706 330.57 311.602 330.805 311.602 331.133C311.602 331.435 311.727 331.721 311.977 331.992C312.232 332.263 312.57 332.479 312.992 332.641C313.414 332.807 313.865 332.891 314.344 332.891H315.617V332.055C315.617 331.93 315.638 331.833 315.68 331.766C315.727 331.698 315.807 331.646 315.922 331.609C316.036 331.578 316.203 331.562 316.422 331.562C316.641 331.562 316.807 331.578 316.922 331.609C317.036 331.646 317.115 331.698 317.156 331.766C317.198 331.833 317.219 331.93 317.219 332.055V334.352ZM319.445 340.164C319.445 340.409 319.427 340.596 319.391 340.727C319.359 340.862 319.31 340.956 319.242 341.008C319.174 341.06 319.078 341.086 318.953 341.086H316.75V343.984C316.75 344.167 316.69 344.294 316.57 344.367C316.451 344.44 316.229 344.477 315.906 344.477C315.583 344.477 315.362 344.44 315.242 344.367C315.128 344.294 315.07 344.167 315.07 343.984V341.086H312.898C312.034 341.086 311.602 341.422 311.602 342.094C311.602 342.333 311.654 342.612 311.758 342.93C311.867 343.253 312.018 343.628 312.211 344.055C312.258 344.169 312.281 344.26 312.281 344.328C312.281 344.438 312.234 344.539 312.141 344.633C312.052 344.727 311.904 344.815 311.695 344.898C311.461 344.992 311.271 345.039 311.125 345.039C311.01 345.039 310.914 345.01 310.836 344.953C310.763 344.901 310.698 344.82 310.641 344.711C310.099 343.638 309.828 342.708 309.828 341.922C309.828 341.016 310.081 340.323 310.586 339.844C311.091 339.37 311.828 339.133 312.797 339.133H315.07V337.625C315.07 337.443 315.128 337.315 315.242 337.242C315.362 337.169 315.583 337.133 315.906 337.133C316.229 337.133 316.451 337.169 316.57 337.242C316.69 337.315 316.75 337.443 316.75 337.625V339.133H318.953C319.13 339.133 319.255 339.211 319.328 339.367C319.406 339.529 319.445 339.794 319.445 340.164Z" fill="#FFB0B0"/>
<path d="M320.51 276.24L314.71 281.895L308.91 276.24L307 278.102L314.71 285.62L322.42 278.102L320.51 276.24Z" fill="#E45666"/>
<rect x="313" y="200.184" width="3" height="73.1308" fill="#E45666"/>
<rect x="310" y="120" width="9" height="87" fill="#E45666"/>
<g clip-path="url(#clip0_39_2)">
<path d="M309.444 114.5H319.194V112.667H309.444V114.5ZM309.444 109.917H319.194V108.083H309.444V109.917ZM309.444 103.5V105.333H319.194V103.5H309.444Z" fill="#E45666"/>
</g>
<defs>
<filter id="filter0_d_39_2" x="121.821" y="59.08" width="215.099" height="48.92" filterUnits="userSpaceOnUse" color-interpolation-filters="sRGB">
<feFlood flood-opacity="0" result="BackgroundImageFix"/>
<feColorMatrix in="SourceAlpha" type="matrix" values="0 0 0 0 0 0 0 0 0 0 0 0 0 0 0 0 0 0 127 0" result="hardAlpha"/>
<feOffset dy="4"/>
<feGaussianBlur stdDeviation="2"/>
<feComposite in2="hardAlpha" operator="out"/>
<feColorMatrix type="matrix" values="0 0 0 0 0 0 0 0 0 0 0 0 0 0 0 0 0 0 0.25 0"/>
<feBlend mode="normal" in2="BackgroundImageFix" result="effect1_dropShadow_39_2"/>
<feBlend mode="normal" in="SourceGraphic" in2="effect1_dropShadow_39_2" result="shape"/>
</filter>
<filter id="filter1_d_39_2" x="0.945999" y="1.336" width="160.49" height="50.408" filterUnits="userSpaceOnUse" color-interpolation-filters="sRGB">
<feFlood flood-opacity="0" result="BackgroundImageFix"/>
<feColorMatrix in="SourceAlpha" type="matrix" values="0 0 0 0 0 0 0 0 0 0 0 0 0 0 0 0 0 0 127 0" result="hardAlpha"/>
<feOffset dy="4"/>
<feGaussianBlur stdDeviation="2"/>
<feComposite in2="hardAlpha" operator="out"/>
<feColorMatrix type="matrix" values="0 0 0 0 0 0 0 0 0 0 0 0 0 0 0 0 0 0 0.25 0"/>
<feBlend mode="normal" in2="BackgroundImageFix" result="effect1_dropShadow_39_2"/>
<feBlend mode="normal" in="SourceGraphic" in2="effect1_dropShadow_39_2" result="shape"/>
</filter>
<clipPath id="clip0_39_2">
<rect width="13" height="22" fill="white" transform="translate(308 98)"/>
</clipPath>
</defs>
</svg>
